<svg xmlns="http://www.w3.org/2000/svg" xmlns:xlink="http://www.w3.org/1999/xlink" width="500" zoomAndPan="magnify" viewBox="0 0 375 374.999991" height="500" preserveAspectRatio="xMidYMid meet" version="1.0"><defs><clipPath id="99987ecae7"><path d="M 46.824219 230 L 120 230 L 120 304 L 46.824219 304 Z M 46.824219 230 " clip-rule="nonzero"/></clipPath><clipPath id="b16eb088ee"><path d="M 207 227 L 328.074219 227 L 328.074219 349 L 207 349 Z M 207 227 " clip-rule="nonzero"/></clipPath></defs><g clip-path="url(#99987ecae7)"><path fill="#ffffff" d="M 83.128906 230.667969 C 79.59375 260.558594 76.726562 263.425781 46.835938 266.964844 C 76.726562 270.5 79.59375 273.367188 83.128906 303.261719 C 86.667969 273.367188 89.535156 270.5 119.425781 266.964844 C 89.535156 263.425781 86.667969 260.558594 83.128906 230.667969 Z M 83.128906 230.667969 " fill-opacity="1" fill-rule="nonzero"/></g><path fill="#ffffff" d="M 235.796875 86.605469 C 239.332031 56.714844 242.199219 53.847656 272.089844 50.308594 C 242.199219 46.773438 239.332031 43.90625 235.796875 14.011719 C 232.257812 43.902344 229.390625 46.773438 199.5 50.308594 C 229.390625 53.847656 232.257812 56.714844 235.796875 86.605469 Z M 235.796875 86.605469 " fill-opacity="1" fill-rule="nonzero"/><path fill="#ffffff" d="M 180.367188 83.664062 C 170.835938 164.203125 163.109375 171.929688 82.570312 181.464844 C 163.109375 190.996094 170.835938 198.722656 180.367188 279.261719 C 189.898438 198.722656 197.625 190.996094 278.167969 181.464844 C 197.628906 171.933594 189.898438 164.203125 180.367188 83.664062 Z M 180.367188 83.664062 " fill-opacity="1" fill-rule="nonzero"/><g clip-path="url(#b16eb088ee)"><path fill="#ffffff" d="M 267.714844 227.824219 C 261.820312 277.640625 257.039062 282.421875 207.222656 288.316406 C 257.039062 294.210938 261.820312 298.992188 267.714844 348.808594 C 273.613281 298.992188 278.390625 294.210938 328.207031 288.316406 C 278.390625 282.421875 273.613281 277.640625 267.714844 227.824219 Z M 267.714844 227.824219 " fill-opacity="1" fill-rule="nonzero"/></g></svg>